<svg width="40" height="40" viewBox="0 0 40 40" fill="none" xmlns="http://www.w3.org/2000/svg">
<path d="M20 10.7407C11.7125 10.7407 5 17.4532 5 25.7407C4.9983 28.8896 5.98822 31.9591 7.82933 34.5137C9.67043 37.0683 12.2692 38.9783 15.257 39.9727C16.007 40.1032 16.2875 39.6532 16.2875 39.2587C16.2875 38.9032 16.268 37.7227 16.268 36.4657C12.5 37.1602 11.525 35.5477 11.225 34.7032C11.0555 34.2712 10.325 32.9407 9.6875 32.5837C9.1625 32.3032 8.4125 31.6087 9.668 31.5907C10.85 31.5712 11.693 32.6782 11.975 33.1282C13.325 35.3962 15.482 34.7587 16.343 34.3657C16.475 33.3907 16.868 32.7352 17.3 32.3602C13.9625 31.9852 10.475 30.6907 10.475 24.9532C10.475 23.3212 11.0555 21.9727 12.0125 20.9212C11.8625 20.5462 11.3375 19.0087 12.1625 16.9462C12.1625 16.9462 13.418 16.5532 16.2875 18.4852C17.5086 18.1463 18.7703 17.9757 20.0375 17.9782C21.3125 17.9782 22.5875 18.1462 23.7875 18.4837C26.6555 16.5337 27.9125 16.9477 27.9125 16.9477C28.7375 19.0102 28.2125 20.5477 28.0625 20.9227C29.018 21.9727 29.6 23.3032 29.6 24.9532C29.6 30.7102 26.0945 31.9852 22.757 32.3602C23.3 32.8282 23.7695 33.7282 23.7695 35.1352C23.7695 37.1407 23.75 38.7532 23.75 39.2602C23.75 39.6532 24.032 40.1212 24.782 39.9712C27.7595 38.9659 30.3469 37.0522 32.1799 34.4994C34.0128 31.9467 34.9991 28.8834 35 25.7407C35 17.4532 28.2875 10.7407 20 10.7407Z" fill="#FFFCF3"/>
</svg>
