<svg width="40" height="40" viewBox="0 0 40 40" fill="none" xmlns="http://www.w3.org/2000/svg">
<mask id="mask0_105177_1149" style="mask-type:alpha" maskUnits="userSpaceOnUse" x="0" y="0" width="40" height="40">
<rect width="40" height="40" fill="#D9D9D9"/>
</mask>
<g mask="url(#mask0_105177_1149)">
<path d="M8.36158 33.3333V17.3612L3.33366 21.1946L1.66699 19L20.0003 5L27.167 10.4721V6.66667H31.6116V13.8612L38.3337 19L36.6391 21.1946L31.6116 17.3333V33.3333H21.9449V23.3333H18.0557V33.3333H8.36158ZM11.1391 30.5554H15.2782V20.5554H24.7224V30.5554H28.8337V15.2362L20.0003 8.48625L11.1391 15.2362V30.5554ZM16.5282 16.4029H23.4724C23.4724 15.4954 23.1252 14.7476 22.4307 14.1596C21.7363 13.5718 20.9262 13.2779 20.0003 13.2779C19.0745 13.2779 18.2644 13.5704 17.5699 14.1554C16.8755 14.7404 16.5282 15.4896 16.5282 16.4029Z" fill="#1C1B1F"/>
</g>
</svg>
