<svg width="76" height="75" viewBox="0 0 76 75" fill="none" xmlns="http://www.w3.org/2000/svg">
<g clip-path="url(#clip0_111379_1143)">
<path d="M62.7862 31.5181L38.7694 45.1983C38.3371 45.4526 37.8031 45.4526 37.3582 45.1983L13.3414 31.5181C12.4005 30.9841 12.4005 29.6237 13.3414 29.077L37.3582 15.3967C37.7904 15.1424 38.3244 15.1424 38.7694 15.3967L62.7862 29.077C63.727 29.6109 63.727 30.9713 62.7862 31.5181Z" fill="black"/>
<path d="M58.6289 36.1205V47.3978C58.6289 47.9064 58.3619 48.3641 57.9169 48.6184L38.7696 59.527C38.3373 59.7813 37.8033 59.7813 37.3583 59.527L18.211 48.6184C17.766 48.3641 17.499 47.9064 17.499 47.3978V36.1205L28.1152 42.1597L37.3583 47.436C37.7906 47.6903 38.3246 47.6903 38.7696 47.436L48.0127 42.1597L58.6289 36.1205Z" fill="black"/>
<path d="M69.817 17.5072L70.4781 17.0495C71.2791 16.4901 71.1774 15.2823 70.3001 14.8627L65.0365 12.358C64.1465 11.9385 63.1421 12.6377 63.2184 13.6167L63.727 19.427C63.816 20.3933 64.9221 20.9146 65.7231 20.3552L66.6639 19.7067C75.0297 33.1836 72.7794 51.1358 61.0825 62.0699C49.5763 72.8259 31.8402 74.1355 18.9101 65.1848C18.0455 64.5872 16.8504 64.8034 16.2528 65.6679C15.6553 66.5325 15.8714 67.7276 16.736 68.3252C23.1311 72.7496 30.5688 74.9237 37.9938 74.9237C47.2878 74.9237 56.5563 71.5164 63.6888 64.8542C76.7461 52.6361 79.2635 32.5352 69.817 17.5072Z" fill="black"/>
<path d="M59.3909 6.59834C44.9986 -3.36945 25.2537 -1.90734 12.438 10.0693C-0.949884 22.5926 -3.35283 42.6044 6.62767 57.8867L5.69955 58.5224C4.89856 59.0818 5.00028 60.2896 5.87754 60.7092L11.1411 63.2139C12.0311 63.6334 13.0355 62.9342 12.9593 61.9552L12.4507 56.1449C12.3617 55.1786 11.2556 54.6573 10.4546 55.2167L9.76803 55.6999C0.893648 41.9815 3.04232 24.0674 15.0444 12.8536C26.5505 2.09758 44.2866 0.775319 57.2168 9.7387C58.0813 10.3363 59.2764 10.1201 59.874 9.25557C60.4715 8.39102 60.2554 7.1959 59.3909 6.59834Z" fill="black"/>
</g>
<defs>
<clipPath id="clip0_111379_1143">
<rect width="75" height="74.9237" fill="white" transform="translate(0.5)"/>
</clipPath>
</defs>
</svg>
